<svg xmlns="http://www.w3.org/2000/svg" xmlns:xlink="http://www.w3.org/1999/xlink" width="40" zoomAndPan="magnify" viewBox="0 0 30 30.000001" height="40" preserveAspectRatio="xMidYMid meet" version="1.2"><defs><clipPath id="9a5d877173"><path d="M 0.484375 0 L 29.515625 0 L 29.515625 29.03125 L 0.484375 29.03125 Z M 0.484375 0 "/></clipPath><clipPath id="8488696e3a"><path d="M 15 0 C 6.984375 0 0.484375 6.5 0.484375 14.515625 C 0.484375 22.53125 6.984375 29.03125 15 29.03125 C 23.015625 29.03125 29.515625 22.53125 29.515625 14.515625 C 29.515625 6.5 23.015625 0 15 0 Z M 15 0 "/></clipPath><clipPath id="25c6cb1658"><path d="M 3.386719 2.902344 L 28.789062 2.902344 L 28.789062 23 L 3.386719 23 Z M 3.386719 2.902344 "/></clipPath></defs><g id="6522a461e5"><g clip-rule="nonzero" clip-path="url(#9a5d877173)"><g clip-rule="nonzero" clip-path="url(#8488696e3a)"><path style=" stroke:none;fill-rule:nonzero;fill:#80d179;fill-opacity:1;" d="M 0.484375 0 L 29.515625 0 L 29.515625 29.03125 L 0.484375 29.03125 Z M 0.484375 0 "/></g></g><g clip-rule="nonzero" clip-path="url(#25c6cb1658)"><path style=" stroke:none;fill-rule:nonzero;fill:#ffffff;fill-opacity:1;" d="M 27.671875 3.621094 L 27.511719 3.5 C 27.003906 3.089844 26.375 2.910156 25.785156 2.972656 C 25.15625 3.03125 24.585938 3.304688 24.171875 3.796875 L 18.867188 10.042969 L 15.726562 13.835938 L 13.425781 16.605469 L 11.855469 14.9375 L 10.972656 14.011719 L 7.867188 10.769531 C 7.414062 10.300781 6.824219 10.0625 6.195312 10.023438 C 5.605469 9.984375 4.976562 10.238281 4.527344 10.671875 L 4.371094 10.828125 C 3.40625 11.714844 3.386719 13.246094 4.269531 14.1875 L 7.335938 17.410156 L 8.21875 18.375 L 11.757812 22.085938 C 12.167969 22.5 12.71875 22.773438 13.25 22.792969 C 13.289062 22.792969 13.289062 22.792969 13.308594 22.792969 C 13.347656 22.792969 13.367188 22.792969 13.425781 22.792969 C 13.425781 22.792969 13.425781 22.792969 13.464844 22.792969 C 13.5625 22.792969 13.644531 22.792969 13.761719 22.792969 C 14.390625 22.734375 14.960938 22.460938 15.371094 21.96875 L 20.636719 15.722656 L 22.699219 13.226562 L 27.964844 6.980469 C 28.789062 5.976562 28.671875 4.484375 27.671875 3.621094 Z M 27.671875 3.621094 "/></g></g></svg>