<svg xmlns="http://www.w3.org/2000/svg" xmlns:xlink="http://www.w3.org/1999/xlink" width="1000" zoomAndPan="magnify" viewBox="0 0 750 749.999995" height="1000" preserveAspectRatio="xMidYMid meet" version="1.2"><defs><clipPath id="64960d802e"><path d="M 68.105469 68.105469 L 681.894531 68.105469 L 681.894531 681.894531 L 68.105469 681.894531 Z M 68.105469 68.105469 "/></clipPath><clipPath id="4df63d1699"><path d="M 375 68.105469 C 205.507812 68.105469 68.105469 205.507812 68.105469 375 C 68.105469 544.492188 205.507812 681.894531 375 681.894531 C 544.492188 681.894531 681.894531 544.492188 681.894531 375 C 681.894531 205.507812 544.492188 68.105469 375 68.105469 Z M 375 68.105469 "/></clipPath><clipPath id="300a392ab3"><path d="M 214 19.21875 L 343 19.21875 L 343 252 L 214 252 Z M 214 19.21875 "/></clipPath></defs><g id="935de0c372"><g clip-rule="nonzero" clip-path="url(#64960d802e)"><g clip-rule="nonzero" clip-path="url(#4df63d1699)"><path style=" stroke:none;fill-rule:nonzero;fill:#3c2c5d;fill-opacity:1;" d="M 68.105469 68.105469 L 681.894531 68.105469 L 681.894531 681.894531 L 68.105469 681.894531 Z M 68.105469 68.105469 "/></g></g><path style=" stroke:none;fill-rule:nonzero;fill:#54b6d9;fill-opacity:1;" d="M 28.964844 398.257812 L 29.074219 387.269531 L 31.757812 398.292969 L 35.886719 388.480469 L 34.019531 400.695312 C 34.019531 400.695312 42.796875 394.871094 43.519531 394.097656 C 44.238281 393.335938 35.71875 405.484375 35.71875 405.484375 L 51.398438 401.167969 L 37.210938 409.378906 L 51.285156 412.503906 L 36.890625 412.363281 L 43.261719 420.785156 L 35.621094 415.636719 L 43.152344 431.832031 L 31.550781 418.578125 L 31.484375 425.746094 L 28.765625 418.105469 L 23.058594 437.078125 L 24.8125 418.511719 L 18.921875 425.398438 L 24.625 415.15625 L 7.285156 424.835938 L 24.863281 413.152344 L 0.441406 415.8125 L 23.3125 411.113281 L 9.25 407.625 L 20.652344 408.851562 L 17.140625 402.097656 L 24.707031 406.878906 L 16.402344 386.191406 L 27.417969 403.769531 L 26.050781 395.691406 L 28.964844 398.257812 "/><path style=" stroke:none;fill-rule:nonzero;fill:#e2be67;fill-opacity:1;" d="M 713.277344 390.59375 L 713.449219 372.816406 L 717.785156 390.632812 L 724.472656 374.765625 L 721.449219 394.53125 C 721.449219 394.53125 735.652344 385.105469 736.820312 383.863281 C 737.980469 382.628906 724.199219 402.285156 724.199219 402.285156 L 749.558594 395.292969 L 726.621094 408.585938 L 749.382812 413.632812 L 726.089844 413.40625 L 736.398438 427.03125 L 724.035156 418.703125 L 736.222656 444.890625 L 717.460938 423.46875 L 717.347656 435.046875 L 712.960938 422.699219 L 703.722656 453.386719 L 706.554688 423.359375 L 697.035156 434.492188 L 706.25 417.925781 L 678.214844 433.578125 L 706.640625 414.667969 L 667.132812 418.984375 L 704.136719 411.386719 L 681.378906 405.75 L 699.828125 407.714844 L 694.148438 396.800781 L 706.382812 404.523438 L 692.949219 371.078125 L 710.773438 399.492188 L 708.554688 386.441406 L 713.277344 390.59375 "/><path style=" stroke:none;fill-rule:nonzero;fill:#54b6d9;fill-opacity:1;" d="M 683.59375 476.773438 L 683.683594 467.339844 L 685.988281 476.796875 L 689.527344 468.378906 L 687.925781 478.867188 C 687.925781 478.867188 695.460938 473.863281 696.082031 473.207031 C 696.703125 472.554688 689.382812 482.980469 689.382812 482.980469 L 702.835938 479.265625 L 690.667969 486.320312 L 702.742188 488.996094 L 690.386719 488.878906 L 695.855469 496.105469 L 689.300781 491.6875 L 695.757812 505.578125 L 685.8125 494.21875 L 685.753906 500.359375 L 683.425781 493.800781 L 678.519531 510.085938 L 680.027344 494.160156 L 674.972656 500.066406 L 679.863281 491.265625 L 664.988281 499.578125 L 680.070312 489.550781 L 659.113281 491.839844 L 678.742188 487.800781 L 666.667969 484.8125 L 676.457031 485.863281 L 673.441406 480.070312 L 679.929688 484.164062 L 672.808594 466.421875 L 682.265625 481.503906 L 681.082031 474.574219 L 683.59375 476.773438 "/><path style=" stroke:none;fill-rule:nonzero;fill:#e2be67;fill-opacity:1;" d="M 614.507812 89.269531 L 614.683594 71.492188 L 619.019531 89.3125 L 625.707031 73.441406 L 622.671875 93.207031 C 622.671875 93.207031 636.886719 83.78125 638.046875 82.539062 C 639.214844 81.304688 625.433594 100.960938 625.433594 100.960938 L 650.792969 93.96875 L 627.851562 107.261719 L 650.609375 112.308594 L 627.320312 112.082031 L 637.621094 125.707031 L 625.265625 117.378906 L 637.449219 143.566406 L 618.695312 122.136719 L 618.578125 133.722656 L 614.1875 121.367188 L 604.953125 152.054688 L 607.789062 122.027344 L 598.257812 133.160156 L 607.472656 116.59375 L 579.4375 132.253906 L 607.871094 113.34375 L 568.359375 117.652344 L 605.367188 110.054688 L 582.613281 104.417969 L 601.058594 106.390625 L 595.375 95.476562 L 607.605469 103.199219 L 594.179688 69.746094 L 612.007812 98.167969 L 609.777344 85.117188 L 614.507812 89.269531 "/><path style=" stroke:none;fill-rule:nonzero;fill:#fc8375;fill-opacity:1;" d="M 469.058594 654.929688 L 469.199219 640.710938 L 472.671875 654.964844 L 478.019531 642.269531 L 475.597656 658.089844 C 475.597656 658.089844 486.96875 650.539062 487.90625 649.554688 C 488.832031 648.558594 477.804688 664.296875 477.804688 664.296875 L 498.097656 658.695312 L 479.734375 669.335938 L 497.957031 673.371094 L 479.320312 673.195312 L 487.566406 684.09375 L 477.671875 677.429688 L 487.425781 698.390625 L 472.417969 681.242188 L 472.316406 690.507812 L 468.8125 680.621094 L 461.417969 705.183594 L 463.683594 681.152344 L 456.066406 690.0625 L 463.441406 676.800781 L 441 689.332031 L 463.757812 674.207031 L 432.132812 677.65625 L 461.75 671.5625 L 443.535156 667.0625 L 458.304688 668.636719 L 453.753906 659.902344 L 463.539062 666.085938 L 452.792969 639.308594 L 467.0625 662.058594 L 465.28125 651.609375 L 469.058594 654.929688 "/><path style=" stroke:none;fill-rule:nonzero;fill:#fc8375;fill-opacity:1;" d="M 264.828125 645.75 L 264.894531 639.667969 L 266.378906 645.757812 L 268.65625 640.335938 L 267.628906 647.089844 C 267.628906 647.089844 272.488281 643.867188 272.882812 643.445312 C 273.28125 643.023438 268.566406 649.742188 268.566406 649.742188 L 277.242188 647.355469 L 269.394531 651.898438 L 277.1875 653.628906 L 269.214844 653.546875 L 272.742188 658.214844 L 268.515625 655.363281 L 272.675781 664.320312 L 266.261719 656.996094 L 266.230469 660.957031 L 264.722656 656.730469 L 261.5625 667.230469 L 262.535156 656.960938 L 259.277344 660.765625 L 262.425781 655.097656 L 252.835938 660.449219 L 262.566406 653.976562 L 249.050781 655.460938 L 261.703125 652.859375 L 253.921875 650.929688 L 260.230469 651.609375 L 258.289062 647.871094 L 262.476562 650.515625 L 257.875 639.070312 L 263.976562 648.789062 L 263.222656 644.332031 L 264.828125 645.75 "/><path style=" stroke:none;fill-rule:nonzero;fill:#fc8375;fill-opacity:1;" d="M 264.554688 431.664062 L 264.605469 427.15625 L 265.699219 431.671875 L 267.390625 427.652344 L 266.628906 432.660156 C 266.628906 432.660156 270.222656 430.273438 270.515625 429.957031 C 270.8125 429.644531 267.324219 434.625 267.324219 434.625 L 273.738281 432.851562 L 267.9375 436.214844 L 273.695312 437.492188 L 267.804688 437.433594 L 270.40625 440.878906 L 267.28125 438.773438 L 270.367188 445.40625 L 265.617188 439.984375 L 265.589844 442.910156 L 264.472656 439.785156 L 262.144531 447.550781 L 262.855469 439.960938 L 260.445312 442.769531 L 262.78125 438.578125 L 255.6875 442.539062 L 262.882812 437.757812 L 252.878906 438.839844 L 262.242188 436.925781 L 256.484375 435.492188 L 261.15625 436 L 259.714844 433.230469 L 262.816406 435.1875 L 259.417969 426.71875 L 263.925781 433.917969 L 263.363281 430.613281 L 264.554688 431.664062 "/><path style=" stroke:none;fill-rule:nonzero;fill:#fc8375;fill-opacity:1;" d="M 255.988281 245.664062 L 256.027344 241.164062 L 257.128906 245.683594 L 258.820312 241.664062 L 258.050781 246.667969 C 258.050781 246.667969 261.648438 244.28125 261.945312 243.96875 C 262.242188 243.652344 258.746094 248.625 258.746094 248.625 L 265.167969 246.859375 L 259.359375 250.222656 L 265.128906 251.5 L 259.226562 251.441406 L 261.835938 254.890625 L 258.714844 252.785156 L 261.796875 259.414062 L 257.046875 253.988281 L 257.015625 256.921875 L 255.902344 253.796875 L 253.566406 261.5625 L 254.289062 253.960938 L 251.875 256.777344 L 254.207031 252.585938 L 247.109375 256.546875 L 254.304688 251.765625 L 244.300781 252.851562 L 253.675781 250.929688 L 247.914062 249.503906 L 252.582031 250 L 251.148438 247.242188 L 254.238281 249.195312 L 250.839844 240.726562 L 255.355469 247.921875 L 254.792969 244.621094 L 255.988281 245.664062 "/><path style=" stroke:none;fill-rule:nonzero;fill:#fc8375;fill-opacity:1;" d="M 426.886719 206.46875 L 426.9375 201.96875 L 428.03125 206.476562 L 429.71875 202.457031 L 428.957031 207.460938 C 428.957031 207.460938 432.554688 205.074219 432.84375 204.761719 C 433.144531 204.445312 429.65625 209.425781 429.65625 209.425781 L 436.070312 207.652344 L 430.265625 211.015625 L 436.027344 212.292969 L 430.125 212.234375 L 432.738281 215.683594 L 429.613281 213.578125 L 432.695312 220.207031 L 427.945312 214.789062 L 427.921875 217.714844 L 426.8125 214.589844 L 424.464844 222.355469 L 425.1875 214.753906 L 422.777344 217.570312 L 425.105469 213.378906 L 418.011719 217.339844 L 425.203125 212.558594 L 415.210938 213.652344 L 424.574219 211.722656 L 418.816406 210.296875 L 423.480469 210.800781 L 422.046875 208.035156 L 425.144531 209.988281 L 421.738281 201.519531 L 426.257812 208.714844 L 425.691406 205.414062 L 426.886719 206.46875 "/><path style=" stroke:none;fill-rule:nonzero;fill:#54b6d9;fill-opacity:1;" d="M 430.914062 330.230469 L 430.964844 325.730469 L 432.058594 330.238281 L 433.75 326.21875 L 432.976562 331.230469 C 432.976562 331.230469 436.574219 328.835938 436.871094 328.523438 C 437.171875 328.214844 433.683594 333.1875 433.683594 333.1875 L 440.097656 331.414062 L 434.285156 334.777344 L 440.054688 336.0625 L 434.164062 336.003906 L 436.765625 339.453125 L 433.640625 337.339844 L 436.722656 343.96875 L 431.976562 338.550781 L 431.949219 341.484375 L 430.832031 338.351562 L 428.492188 346.117188 L 429.214844 338.523438 L 426.804688 341.332031 L 429.140625 337.148438 L 422.039062 341.109375 L 429.230469 336.320312 L 419.238281 337.414062 L 428.601562 335.492188 L 422.84375 334.066406 L 427.507812 334.5625 L 426.074219 331.796875 L 429.164062 333.757812 L 425.769531 325.289062 L 430.285156 332.484375 L 429.71875 329.175781 L 430.914062 330.230469 "/><path style=" stroke:none;fill-rule:nonzero;fill:#54b6d9;fill-opacity:1;" d="M 160.160156 327.558594 L 160.210938 323.070312 L 161.3125 327.578125 L 163.003906 323.558594 L 162.234375 328.5625 C 162.234375 328.5625 165.828125 326.175781 166.121094 325.863281 C 166.417969 325.546875 162.929688 330.527344 162.929688 330.527344 L 169.351562 328.753906 L 163.542969 332.117188 L 169.300781 333.394531 L 163.410156 333.335938 L 166.011719 336.785156 L 162.886719 334.679688 L 165.972656 341.308594 L 161.222656 335.890625 L 161.199219 338.816406 L 160.085938 335.691406 L 157.75 343.457031 L 158.460938 335.855469 L 156.050781 338.671875 L 158.386719 334.480469 L 151.292969 338.441406 L 158.488281 333.660156 L 148.484375 334.753906 L 157.859375 332.824219 L 152.089844 331.398438 L 156.765625 331.902344 L 155.328125 329.136719 L 158.421875 331.089844 L 155.023438 322.621094 L 159.53125 329.816406 L 158.96875 326.515625 L 160.160156 327.558594 "/><path style=" stroke:none;fill-rule:nonzero;fill:#54b6d9;fill-opacity:1;" d="M 161.273438 481 L 161.3125 476.5 L 162.40625 481.007812 L 164.097656 476.996094 L 163.335938 481.992188 C 163.335938 481.992188 166.933594 479.613281 167.230469 479.292969 C 167.519531 478.984375 164.03125 483.957031 164.03125 483.957031 L 170.453125 482.191406 L 164.644531 485.546875 L 170.40625 486.832031 L 164.511719 486.773438 L 167.121094 490.222656 L 163.988281 488.109375 L 167.074219 494.738281 L 162.324219 489.320312 L 162.300781 492.253906 L 161.1875 489.121094 L 158.851562 496.894531 L 159.566406 489.292969 L 157.152344 492.113281 L 159.492188 487.910156 L 152.394531 491.871094 L 159.589844 487.089844 L 149.585938 488.183594 L 158.953125 486.261719 L 153.191406 484.835938 L 157.867188 485.332031 L 156.425781 482.574219 L 159.523438 484.519531 L 156.125 476.058594 L 160.632812 483.253906 L 160.070312 479.945312 L 161.273438 481 "/><path style=" stroke:none;fill-rule:nonzero;fill:#54b6d9;fill-opacity:1;" d="M 548.785156 374.117188 L 548.832031 369.617188 L 549.925781 374.125 L 551.625 370.117188 L 550.855469 375.113281 C 550.855469 375.113281 554.453125 372.726562 554.75 372.417969 C 555.039062 372.105469 551.550781 377.078125 551.550781 377.078125 L 557.972656 375.3125 L 552.164062 378.675781 L 557.925781 379.953125 L 552.03125 379.894531 L 554.640625 383.34375 L 551.511719 381.230469 L 554.59375 387.859375 L 549.84375 382.4375 L 549.820312 385.363281 L 548.707031 382.238281 L 546.371094 390.011719 L 547.085938 382.414062 L 544.679688 385.230469 L 547.011719 381.03125 L 539.917969 385 L 547.109375 380.210938 L 537.105469 381.304688 L 546.472656 379.378906 L 540.71875 377.957031 L 545.386719 378.453125 L 543.953125 375.691406 L 547.042969 377.640625 L 543.644531 369.179688 L 548.152344 376.371094 L 547.589844 373.066406 L 548.785156 374.117188 "/><path style=" stroke:none;fill-rule:nonzero;fill:#54b6d9;fill-opacity:1;" d="M 133.269531 591.714844 L 133.351562 582.75 L 135.546875 591.742188 L 138.914062 583.726562 L 137.386719 593.707031 C 137.386719 593.707031 144.554688 588.949219 145.144531 588.320312 C 145.734375 587.695312 138.78125 597.617188 138.78125 597.617188 L 151.574219 594.085938 L 140 600.800781 L 151.484375 603.34375 L 139.734375 603.234375 L 144.929688 610.105469 L 138.699219 605.894531 L 144.847656 619.113281 L 135.382812 608.308594 L 135.324219 614.148438 L 133.105469 607.917969 L 128.445312 623.398438 L 129.878906 608.257812 L 125.074219 613.867188 L 129.722656 605.507812 L 115.574219 613.402344 L 129.921875 603.867188 L 109.980469 606.046875 L 128.652344 602.207031 L 117.167969 599.367188 L 126.480469 600.359375 L 123.613281 594.847656 L 129.789062 598.742188 L 123.011719 581.863281 L 132.007812 596.207031 L 130.882812 589.628906 L 133.269531 591.714844 "/><path style=" stroke:none;fill-rule:nonzero;fill:#e2be67;fill-opacity:1;" d="M 153.40625 113.839844 L 153.53125 101.292969 L 156.589844 113.875 L 161.3125 102.667969 L 159.175781 116.625 C 159.175781 116.625 169.210938 109.96875 170.03125 109.09375 C 170.859375 108.214844 161.121094 122.09375 161.121094 122.09375 L 179.03125 117.164062 L 162.828125 126.546875 L 178.898438 130.117188 L 162.457031 129.953125 L 169.734375 139.574219 L 161.007812 133.6875 L 169.609375 152.1875 L 156.367188 137.054688 L 156.28125 145.234375 L 153.183594 136.515625 L 146.660156 158.175781 L 148.667969 136.980469 L 141.9375 144.835938 L 148.441406 133.140625 L 128.652344 144.195312 L 148.726562 130.847656 L 120.820312 133.886719 L 146.960938 128.527344 L 130.882812 124.546875 L 143.917969 125.941406 L 139.898438 118.226562 L 148.542969 123.679688 L 139.054688 100.058594 L 151.640625 120.128906 L 150.066406 110.914062 L 153.40625 113.839844 "/><path style=" stroke:none;fill-rule:nonzero;fill:#54b6d9;fill-opacity:1;" d="M 574.832031 167.996094 L 574.953125 155.152344 L 578.085938 168.03125 L 582.917969 156.570312 L 580.730469 170.847656 C 580.730469 170.847656 591 164.035156 591.84375 163.140625 C 592.679688 162.246094 582.71875 176.449219 582.71875 176.449219 L 601.042969 171.394531 L 584.46875 181 L 600.910156 184.648438 L 584.085938 184.480469 L 591.527344 194.328125 L 582.605469 188.308594 L 591.414062 207.230469 L 577.855469 191.75 L 577.773438 200.121094 L 574.605469 191.195312 L 567.925781 213.363281 L 569.972656 191.675781 L 563.09375 199.714844 L 569.75 187.746094 L 549.496094 199.058594 L 570.03125 185.394531 L 541.492188 188.507812 L 568.226562 183.015625 L 551.785156 178.945312 L 565.117188 180.371094 L 561.007812 172.480469 L 569.847656 178.066406 L 560.144531 153.902344 L 573.023438 174.4375 L 571.414062 164.996094 L 574.832031 167.996094 "/><path style=" stroke:none;fill-rule:nonzero;fill:#54b6d9;fill-opacity:1;" d="M 458.492188 278.914062 C 448.683594 276.246094 438.570312 280.296875 429.878906 284.816406 C 419.992188 289.953125 407.46875 298.578125 400.507812 307.363281 C 387.042969 324.394531 375.199219 344.269531 368.652344 364.953125 L 368.785156 364.984375 C 376.882812 345.734375 388.890625 329.632812 406.476562 317.964844 C 414.917969 312.351562 423.199219 306.289062 431.875 301.042969 C 440.535156 295.8125 450.917969 294.890625 458.601562 287.980469 C 460.863281 285.941406 462.925781 280.125 458.492188 278.914062 "/><path style=" stroke:none;fill-rule:nonzero;fill:#e2be67;fill-opacity:1;" d="M 529.175781 190.257812 C 522.5625 183.585938 514.273438 184.398438 505.457031 187.414062 C 496.839844 190.363281 487.746094 193.929688 480.15625 199.035156 C 464.882812 209.308594 450.207031 220.082031 437.636719 233.640625 C 426.042969 246.148438 414.289062 259.082031 404.660156 273.195312 C 394.871094 287.53125 387.65625 302.449219 379.484375 317.671875 C 379.277344 318.054688 379.789062 318.171875 379.988281 317.863281 C 383.984375 311.617188 387.339844 305.050781 391.484375 298.886719 C 396.207031 291.851562 402.214844 285.636719 407.964844 279.4375 C 432.605469 252.910156 460.789062 235.648438 494.617188 223.148438 C 503.511719 219.859375 546.332031 207.570312 529.175781 190.257812 "/><path style=" stroke:none;fill-rule:nonzero;fill:#e2be67;fill-opacity:1;" d="M 460.746094 91.332031 C 441.746094 91.566406 426.058594 110.601562 415.582031 124.449219 C 403.351562 140.617188 397.144531 159.128906 391.949219 178.496094 C 381.796875 216.371094 373.226562 255.601562 375.578125 295 C 375.605469 295.324219 376.003906 295.164062 376.019531 294.917969 C 378.820312 256.421875 393.015625 219.644531 409.757812 185.210938 C 417.273438 169.738281 426.082031 155.09375 436.890625 141.695312 C 447.171875 128.949219 462.746094 118.242188 467.882812 102.121094 C 469.367188 97.464844 466.027344 91.265625 460.746094 91.332031 "/><path style=" stroke:none;fill-rule:nonzero;fill:#54b6d9;fill-opacity:1;" d="M 538.144531 122.601562 C 528.851562 113.898438 515.394531 120.054688 505.953125 125.0625 C 493.707031 131.558594 482.867188 139.679688 473.152344 149.507812 C 465.015625 157.746094 457.90625 167.0625 451.5 176.691406 C 448.5 181.207031 445.773438 185.964844 443.097656 190.679688 C 440.417969 195.402344 436.589844 199.375 434.46875 204.394531 C 434.261719 204.894531 434.859375 205.023438 435.097656 204.636719 C 440.023438 196.78125 449.925781 188.65625 457.300781 183.1875 C 465.679688 176.988281 474.746094 171.097656 483.820312 165.984375 C 493.390625 160.597656 503.285156 155.375 513.246094 150.742188 C 523.507812 145.96875 533.667969 143.09375 539.625 132.554688 C 541.472656 129.28125 540.84375 125.128906 538.144531 122.601562 "/><path style=" stroke:none;fill-rule:nonzero;fill:#54b6d9;fill-opacity:1;" d="M 664.507812 227.285156 C 652.25 215.417969 636.761719 214.636719 620.46875 214.746094 C 602.625 214.878906 583.574219 218.449219 566.351562 222.96875 C 549.15625 227.476562 532.316406 235.488281 516.179688 242.808594 C 510.605469 245.335938 505.234375 248.011719 499.90625 250.902344 C 499.308594 251.34375 498.6875 251.757812 498.089844 252.195312 C 494.972656 254.515625 491.851562 256.878906 488.972656 259.503906 C 492.082031 258.675781 495.238281 257.996094 497.933594 257.0625 C 505.339844 254.46875 512.675781 252.660156 520.285156 250.863281 C 542.328125 245.640625 564.902344 243.089844 587.484375 241.761719 C 612.339844 240.3125 637.140625 243.222656 661.347656 235.953125 C 664.921875 234.882812 667.6875 230.359375 664.507812 227.285156 "/><path style=" stroke:none;fill-rule:nonzero;fill:#e2be67;fill-opacity:1;" d="M 699.960938 299.351562 C 677.808594 289.125 653.210938 280.597656 628.847656 277.929688 C 603.328125 275.128906 576.4375 278.410156 551.144531 282.203125 C 526.085938 285.976562 502.714844 292.570312 480.066406 303.992188 C 457.582031 315.328125 438.023438 330.144531 417.304688 344.226562 C 416.976562 344.449219 417.171875 345.0625 417.578125 344.847656 C 443.503906 331.082031 467.875 319.480469 496.863281 313.769531 C 537.96875 305.675781 581.261719 301.03125 623.195312 302.175781 C 648.089844 302.855469 672.613281 304.097656 697.40625 306.484375 C 701.035156 306.835938 703.6875 301.074219 699.960938 299.351562 "/><g clip-rule="nonzero" clip-path="url(#300a392ab3)"><path style=" stroke:none;fill-rule:nonzero;fill:#54b6d9;fill-opacity:1;" d="M 337.0625 181.515625 C 333.390625 157.367188 326.082031 135.917969 316.070312 113.699219 C 306.058594 91.507812 292.402344 70.804688 276.308594 52.574219 C 269.082031 44.378906 260.261719 37.414062 251.621094 30.769531 C 242.039062 23.402344 232.367188 20.160156 220.460938 19.40625 C 216.117188 19.132812 212.1875 25.375 215.925781 28.574219 C 223.320312 34.898438 230.3125 41.550781 237.878906 47.734375 C 246.40625 54.703125 255.515625 62.21875 262.640625 70.621094 C 277.351562 87.984375 288.496094 106.980469 299.089844 127.027344 C 319.5 165.660156 338.296875 207.628906 341.695312 251.765625 C 341.726562 252.179688 342.25 251.972656 342.265625 251.648438 C 344.003906 228.453125 340.558594 204.453125 337.0625 181.515625 "/></g><path style=" stroke:none;fill-rule:nonzero;fill:#54b6d9;fill-opacity:1;" d="M 369.738281 85.167969 C 366.753906 83.898438 363.257812 85.707031 361.367188 88 C 352.5 98.773438 355.484375 114.339844 356.089844 127.132812 C 356.222656 130.167969 357.332031 132.777344 357.503906 135.800781 C 357.722656 139.554688 357.976562 143.285156 358.316406 147.03125 C 358.921875 153.667969 359.601562 160.300781 360.109375 166.953125 C 362.222656 194.707031 362.769531 222.503906 360.28125 250.25 C 360.214844 250.996094 361.292969 250.730469 361.417969 250.175781 C 367.90625 221.359375 372.730469 191.941406 377.84375 162.859375 C 379.019531 156.128906 379.882812 149.367188 380.609375 142.574219 C 380.917969 139.671875 381.183594 136.773438 381.347656 133.855469 C 381.589844 129.925781 382.863281 125.691406 382.722656 121.804688 C 382.292969 110.179688 382.566406 90.644531 369.738281 85.167969 "/><path style=" stroke:none;fill-rule:nonzero;fill:#fc8375;fill-opacity:1;" d="M 407.34375 100.546875 C 408.382812 98.964844 409.257812 97.140625 409.988281 95.425781 C 410.296875 94.09375 410.578125 92.742188 410.941406 91.382812 C 412.863281 84.230469 415.191406 77.195312 417.03125 70.007812 C 419.867188 58.953125 422.644531 39.503906 406.492188 38.070312 C 403.625 37.8125 400.167969 39.984375 399.164062 42.703125 C 395.757812 51.917969 398.816406 61.09375 401.46875 70.25 C 403.898438 78.59375 409.316406 91.414062 407.34375 100.546875 "/><path style=" stroke:none;fill-rule:nonzero;fill:#e2be67;fill-opacity:1;" d="M 337.914062 274.769531 C 337.019531 268.207031 336.554688 261.660156 335.371094 255.121094 C 332.609375 239.78125 326.496094 225.792969 320.054688 211.730469 C 313.941406 198.355469 305.695312 185.949219 297.140625 174.023438 C 287.96875 161.226562 278.710938 150.808594 264.722656 143.203125 C 261.007812 141.179688 258 146.898438 259.394531 149.78125 C 271.601562 175.183594 292.136719 195.039062 305.03125 220.140625 C 311.171875 232.101562 316.839844 244.296875 322.832031 256.332031 C 328.816406 268.355469 336.796875 280.097656 338.800781 293.648438 C 338.917969 294.378906 339.929688 293.816406 339.9375 293.277344 C 340.101562 287.027344 338.75 280.9375 337.914062 274.769531 "/><path style=" stroke:none;fill-rule:nonzero;fill:#fc8375;fill-opacity:1;" d="M 279.78125 112.125 C 274.757812 105.621094 269.609375 98.402344 260.644531 99.511719 C 256.78125 99.984375 254.835938 104.253906 255.375 107.667969 C 257.6875 122.367188 279.6875 121.9375 287.203125 132.621094 C 287.378906 132.859375 287.769531 132.628906 287.742188 132.363281 C 286.996094 125.136719 284.203125 117.851562 279.78125 112.125 "/><path style=" stroke:none;fill-rule:nonzero;fill:#fc8375;fill-opacity:1;" d="M 261.582031 232.332031 C 257.488281 230.359375 254.238281 236.714844 256.90625 239.648438 C 272.859375 257.210938 289.292969 273.984375 303.496094 293.050781 C 310.757812 302.804688 317.394531 312.824219 323.496094 323.34375 C 329.734375 334.105469 336.976562 344.042969 341.808594 355.578125 C 342.148438 356.390625 343.25 355.878906 343.226562 355.117188 C 341.386719 304.421875 307.121094 254.308594 261.582031 232.332031 "/><path style=" stroke:none;fill-rule:nonzero;fill:#54b6d9;fill-opacity:1;" d="M 293.777344 231.785156 C 286.402344 207.328125 270.367188 187.28125 251.460938 170.609375 C 232.566406 153.941406 206.347656 129.886719 178.839844 137.351562 C 174.183594 138.621094 170.820312 143.757812 173.328125 148.347656 C 179.007812 158.75 190.847656 162.660156 201.167969 166.902344 C 213.066406 171.792969 223.914062 179.675781 234.488281 186.894531 C 244.78125 193.921875 255.132812 200.773438 265.328125 207.960938 C 275.71875 215.292969 285.300781 221.789062 292.722656 232.429688 C 293.113281 232.996094 293.949219 232.339844 293.777344 231.785156 "/><path style=" stroke:none;fill-rule:nonzero;fill:#54b6d9;fill-opacity:1;" d="M 364.574219 293.464844 C 363.996094 290.21875 359.371094 291.601562 358.484375 293.871094 C 354.777344 303.371094 353.917969 312.851562 353.4375 322.953125 C 353.203125 327.925781 353.675781 333.734375 354.589844 338.617188 C 355.359375 342.726562 357.472656 349.273438 356.734375 353.617188 C 356.5625 354.667969 357.828125 355.148438 358.433594 354.269531 C 359.785156 352.28125 360.082031 350.265625 360.316406 347.816406 C 360.945312 341.277344 362.113281 334.6875 363.015625 328.171875 C 364.597656 316.644531 366.644531 305.050781 364.574219 293.464844 "/><path style=" stroke:none;fill-rule:nonzero;fill:#e2be67;fill-opacity:1;" d="M 330.496094 359.210938 C 328.34375 355.066406 326.402344 350.824219 324.355469 346.628906 C 322.035156 341.863281 318.050781 337.835938 315.066406 333.445312 C 309.515625 325.28125 303.789062 317.234375 297.507812 309.617188 C 283.988281 293.242188 267.78125 279.015625 250.78125 266.382812 C 218.808594 242.625 179.894531 216.511719 138.507812 217.488281 C 135.359375 217.5625 130.566406 223.015625 134.578125 225.421875 C 141.839844 229.761719 149.453125 232.910156 157.0625 236.507812 C 166.234375 240.835938 175.035156 245.640625 184.386719 249.636719 C 203.40625 257.773438 221.527344 269.855469 238.773438 281.203125 C 255.175781 291.992188 271.449219 304.109375 286.382812 316.835938 C 293.835938 323.191406 301.011719 329.890625 308.421875 336.296875 C 316.722656 343.480469 323.15625 351.089844 329.875 359.699219 C 330.164062 360.0625 330.6875 359.582031 330.496094 359.210938 "/><path style=" stroke:none;fill-rule:nonzero;fill:#54b6d9;fill-opacity:1;" d="M 232.683594 221.972656 C 226.460938 213.949219 217.882812 207.800781 210.015625 201.46875 C 199.632812 193.125 189.199219 185.773438 177.894531 178.753906 C 167.007812 172 155.585938 165.570312 143.953125 160.222656 C 132.117188 154.789062 119.945312 149.46875 106.765625 153.046875 C 103.453125 153.949219 99.285156 159.652344 103.359375 162.394531 C 112.492188 168.554688 123.101562 171.414062 133.253906 175.382812 C 144.753906 179.882812 156.207031 184.746094 167.527344 189.703125 C 178.773438 194.617188 189.90625 199.835938 200.777344 205.53125 C 210.980469 210.875 222.488281 215.816406 231.222656 223.414062 C 231.988281 224.078125 233.28125 222.742188 232.683594 221.972656 "/><path style=" stroke:none;fill-rule:nonzero;fill:#54b6d9;fill-opacity:1;" d="M 319.625 362.972656 C 315.871094 356.078125 309.695312 350.53125 303.382812 346.007812 C 294.539062 339.683594 284.269531 334.164062 274.789062 328.863281 C 264.605469 323.160156 252.222656 321.210938 241.085938 318.269531 C 233.015625 316.132812 221.355469 312.179688 213.589844 316.382812 C 210.382812 318.113281 207.207031 323.75 211.128906 326.609375 C 217.101562 330.957031 227.328125 329.945312 234.480469 331.753906 C 245.054688 334.421875 255.421875 337.25 265.847656 340.472656 C 275.363281 343.414062 284.347656 346.15625 293.296875 350.625 C 297.621094 352.785156 301.476562 355.191406 306 356.957031 C 310.300781 358.628906 315.605469 360.484375 319.285156 363.3125 C 319.484375 363.460938 319.730469 363.171875 319.625 362.972656 "/><path style=" stroke:none;fill-rule:nonzero;fill:#54b6d9;fill-opacity:1;" d="M 187.359375 313.089844 C 174.632812 310.886719 162.25 307.265625 149.429688 305.292969 C 136.386719 303.289062 123.273438 301.84375 110.132812 300.71875 C 84.664062 298.539062 55.527344 300.734375 34.046875 315.496094 C 29.960938 318.304688 29.273438 327.335938 35.769531 327.445312 C 48.019531 327.652344 59.03125 323.234375 70.800781 320.160156 C 83.148438 316.9375 96.035156 314.390625 108.738281 313.214844 C 121.707031 312.003906 134.894531 312.003906 147.914062 311.816406 C 161.113281 311.625 174.101562 313.257812 187.261719 313.539062 C 187.507812 313.546875 187.660156 313.140625 187.359375 313.089844 "/><path style=" stroke:none;fill-rule:nonzero;fill:#54b6d9;fill-opacity:1;" d="M 231.457031 295.273438 C 221.253906 290.011719 211.855469 283.332031 201.125 279.171875 C 189.914062 274.820312 179.28125 269.175781 167.894531 265.222656 C 157.660156 261.667969 146.835938 259.84375 136.269531 257.597656 C 124.3125 255.070312 113.429688 253.273438 101.671875 257.617188 C 98.496094 258.792969 96.441406 265.207031 100.667969 266.46875 C 110.28125 269.324219 120.152344 270.15625 129.988281 271.8125 C 141.492188 273.75 153.019531 275.890625 164.371094 278.582031 C 186.753906 283.910156 208.875 290.375 231.25 295.695312 C 231.488281 295.753906 231.714844 295.40625 231.457031 295.273438 "/><path style=" stroke:none;fill-rule:nonzero;fill:#e2be67;fill-opacity:1;" d="M 258.167969 352.863281 C 250.839844 351.726562 243.671875 349.28125 236.289062 348.078125 C 226.535156 346.488281 216.921875 344.210938 207.148438 342.675781 C 188.652344 339.792969 170.046875 337.65625 151.320312 337.84375 C 117.492188 338.203125 68.386719 339.386719 46.785156 370.398438 C 43.667969 374.871094 44 381.21875 50.265625 382.273438 C 66.25 384.964844 83.835938 374.839844 98.894531 370.71875 C 116.214844 365.988281 134.007812 362.558594 151.765625 360.011719 C 169.757812 357.4375 187.832031 355.191406 205.941406 353.539062 C 215.679688 352.652344 225.5625 352.164062 235.34375 352.140625 C 242.960938 352.117188 250.484375 353.464844 258.027344 353.457031 C 258.355469 353.457031 258.554688 352.917969 258.167969 352.863281 "/><path style=" stroke:none;fill-rule:nonzero;fill:#54b6d9;fill-opacity:1;" d="M 254.074219 369.585938 C 241.535156 365.53125 226.898438 364.539062 213.6875 365.722656 C 196.574219 367.265625 178.375 373.3125 165.6875 385.28125 C 161.453125 389.285156 161.296875 398.027344 169.039062 396.992188 C 183.597656 395.042969 197.253906 387.644531 211.144531 383.191406 C 225.265625 378.660156 239.207031 372.417969 253.90625 370.304688 C 254.207031 370.265625 254.445312 369.699219 254.074219 369.585938 "/><path style=" stroke:none;fill-rule:nonzero;fill:#e2be67;fill-opacity:1;" d="M 227.628906 399.097656 C 207.375 407.109375 187.234375 414.941406 167.894531 425.027344 C 147.027344 435.898438 127.121094 450.195312 109.699219 465.992188 C 92.886719 481.246094 77.660156 499.933594 66.507812 519.699219 C 60.980469 529.488281 56.398438 539.960938 52.957031 550.652344 C 49.898438 560.167969 45.722656 574.1875 49.097656 583.992188 C 51.167969 590.042969 58.453125 591.269531 63.160156 587.207031 C 70.394531 580.976562 75.515625 570.433594 79.160156 561.667969 C 82.933594 552.582031 86.578125 543.410156 90.839844 534.535156 C 99.648438 516.144531 112.425781 499.164062 125.199219 483.359375 C 153.367188 448.503906 189.480469 422.316406 227.742188 399.503906 C 227.960938 399.371094 227.925781 398.980469 227.628906 399.097656 "/><path style=" stroke:none;fill-rule:nonzero;fill:#54b6d9;fill-opacity:1;" d="M 314.046875 405.890625 C 282.183594 427.835938 253.808594 457.585938 230.453125 488.308594 C 217.632812 505.171875 208.617188 525.667969 199.882812 544.851562 C 191.867188 562.429688 185.230469 584.226562 187.160156 603.816406 C 187.648438 608.847656 193.527344 609.742188 196.417969 605.863281 C 207.183594 591.433594 214.601562 572.648438 221.445312 556.097656 C 229.167969 537.417969 237.714844 518.972656 247.328125 501.195312 C 256.0625 485.035156 266.660156 469.644531 276.390625 454.082031 C 287.261719 436.6875 299.445312 420.5 314.335938 406.347656 C 314.609375 406.089844 314.402344 405.652344 314.046875 405.890625 "/><path style=" stroke:none;fill-rule:nonzero;fill:#54b6d9;fill-opacity:1;" d="M 224.84375 455.589844 C 204.6875 469.496094 184.492188 483.0625 167.734375 501.046875 C 149.894531 520.207031 134.621094 542.960938 128.660156 568.621094 C 126.085938 579.726562 140.214844 580.148438 144.480469 572 C 155.511719 550.941406 166.179688 530.242188 179.082031 510.234375 C 192.066406 490.082031 207.308594 472.113281 225.28125 456.269531 C 225.707031 455.886719 225.367188 455.226562 224.84375 455.589844 "/><path style=" stroke:none;fill-rule:nonzero;fill:#54b6d9;fill-opacity:1;" d="M 173.429688 562.792969 C 166.011719 574.660156 157.121094 586.105469 152.578125 599.421875 C 147.207031 615.175781 144.6875 630.261719 144.472656 646.851562 C 144.375 654.292969 154.1875 651.535156 155.527344 646.097656 C 162.382812 618.433594 166.078125 590.347656 173.960938 562.910156 C 174.066406 562.519531 173.578125 562.554688 173.429688 562.792969 "/><path style=" stroke:none;fill-rule:nonzero;fill:#fc8375;fill-opacity:1;" d="M 302.128906 391.519531 C 261.730469 399.351562 209.222656 408.179688 188.289062 448.878906 C 185.984375 453.34375 189.886719 457.769531 194.527344 455.804688 C 203.867188 451.835938 211.242188 445.472656 218.917969 439.03125 C 226.742188 432.460938 235.101562 426.21875 243.441406 420.320312 C 261.78125 407.339844 281.476562 400.332031 302.253906 392.367188 C 302.675781 392.199219 302.667969 391.414062 302.128906 391.519531 "/><path style=" stroke:none;fill-rule:nonzero;fill:#54b6d9;fill-opacity:1;" d="M 131.726562 425.292969 C 109.566406 429.851562 87.480469 437.152344 68.613281 449.953125 C 58.1875 457.023438 49.335938 465.320312 40.933594 474.660156 C 33.773438 482.632812 25.925781 493.71875 26.851562 505.007812 C 27.242188 509.753906 31.238281 511.71875 35.496094 510.039062 C 44.40625 506.53125 51.027344 498.3125 56.917969 491.09375 C 63.964844 482.449219 71.222656 474.402344 79.394531 466.804688 C 96.058594 451.304688 111.207031 436.207031 131.785156 425.722656 C 131.984375 425.625 132.007812 425.234375 131.726562 425.292969 "/><path style=" stroke:none;fill-rule:nonzero;fill:#e2be67;fill-opacity:1;" d="M 343.226562 423.277344 C 343.21875 422.457031 342.132812 422.558594 341.875 423.179688 C 328.808594 455.207031 315.78125 488.207031 317.488281 523.429688 C 317.949219 533 329.734375 529.4375 331.664062 522.460938 C 340.535156 490.421875 343.457031 456.417969 343.226562 423.277344 "/><path style=" stroke:none;fill-rule:nonzero;fill:#54b6d9;fill-opacity:1;" d="M 361.21875 396.609375 C 361.167969 396.171875 360.5625 396.261719 360.515625 396.652344 C 358.625 409.960938 355.773438 422.871094 354.621094 436.304688 C 353.355469 451.007812 351.339844 465.59375 350.585938 480.351562 C 349.09375 509.804688 344.601562 541.15625 349.640625 570.441406 C 350.675781 576.476562 358.550781 572.316406 359.527344 568.460938 C 363.117188 554.332031 363.777344 538.960938 364.542969 524.449219 C 365.328125 509.65625 366.289062 494.945312 366.324219 480.121094 C 366.382812 452.375 364.410156 424.15625 361.21875 396.609375 "/><path style=" stroke:none;fill-rule:nonzero;fill:#54b6d9;fill-opacity:1;" d="M 312.429688 463.199219 C 301.863281 483.742188 289.433594 502.753906 280.824219 524.339844 C 276.605469 534.90625 273.398438 545.761719 270.414062 556.726562 C 267.367188 567.957031 266.917969 578.886719 266.601562 590.441406 C 266.394531 598.207031 276.746094 596.8125 279.15625 591.308594 C 288.167969 570.839844 291.695312 549.367188 297.648438 527.9375 C 300.738281 516.800781 302.089844 505.253906 304.601562 493.984375 C 306.921875 483.617188 310.375 473.582031 312.828125 463.28125 C 312.902344 463.007812 312.539062 462.992188 312.429688 463.199219 "/><path style=" stroke:none;fill-rule:nonzero;fill:#fc8375;fill-opacity:1;" d="M 234.167969 568.378906 C 232.167969 572.015625 230.230469 575.695312 228.414062 579.433594 C 220.21875 596.390625 208.875 620.28125 215.394531 639.351562 C 217.203125 644.65625 223.699219 644.109375 226.757812 640.214844 C 239.636719 623.820312 241.09375 599.929688 246.707031 580.394531 C 249.539062 570.574219 252.074219 560.664062 254.761719 550.808594 C 256.160156 545.679688 259.234375 539.414062 260.6875 533.515625 C 252.308594 545.117188 242.875 556.5625 234.167969 568.378906 "/><path style=" stroke:none;fill-rule:nonzero;fill:#54b6d9;fill-opacity:1;" d="M 325.476562 609.0625 C 325.21875 594.308594 324.480469 579.582031 323.835938 564.839844 C 323.785156 563.878906 322.617188 564.253906 322.410156 564.941406 C 313.714844 594.757812 303.421875 626.546875 308.371094 657.863281 C 309.714844 666.351562 320.777344 660.375 322.160156 655.113281 C 326.1875 639.808594 325.75 624.742188 325.476562 609.0625 "/><path style=" stroke:none;fill-rule:nonzero;fill:#fc8375;fill-opacity:1;" d="M 341.675781 394.332031 C 332.675781 403.222656 322.210938 409.679688 313.875 419.367188 C 305.808594 428.746094 298.855469 439.496094 295.535156 451.464844 C 294.316406 455.847656 300.15625 457.464844 302.453125 454.105469 C 308.726562 444.957031 313.574219 434.996094 319.292969 425.492188 C 325.957031 414.4375 335.304688 405.578125 342.296875 394.828125 C 342.621094 394.324219 342.109375 393.90625 341.675781 394.332031 "/><path style=" stroke:none;fill-rule:nonzero;fill:#fc8375;fill-opacity:1;" d="M 121.875 395.707031 C 107.695312 396.476562 93.265625 401.042969 79.964844 405.726562 C 63.339844 411.585938 47.777344 419.605469 36.914062 433.820312 C 33.574219 438.1875 35.257812 445.074219 41.628906 444.179688 C 57.050781 442.023438 68.835938 430.953125 80.992188 422.078125 C 93.640625 412.828125 107.097656 402.078125 121.890625 396.558594 C 122.222656 396.4375 122.363281 395.679688 121.875 395.707031 "/><path style=" stroke:none;fill-rule:nonzero;fill:#54b6d9;fill-opacity:1;" d="M 430.566406 515.847656 C 426.058594 500.058594 421.101562 484.1875 415.53125 468.742188 C 409.964844 453.328125 403.367188 438.644531 395.289062 424.386719 C 391.640625 417.964844 386.550781 411.492188 381.804688 405.851562 C 379.640625 403.273438 377.769531 400.457031 375.644531 397.84375 C 373.65625 395.40625 370.292969 393.617188 368.96875 390.71875 C 368.824219 390.386719 368.402344 390.792969 368.445312 391.039062 C 368.769531 392.8125 369.589844 393.851562 370.617188 395.417969 C 372.902344 398.90625 374.484375 402.644531 376.035156 406.503906 C 378.894531 413.632812 381.058594 421.03125 383.351562 428.351562 C 388.375 444.371094 394.9375 459.964844 400.070312 475.992188 C 404.816406 490.8125 409.292969 505.71875 414 520.554688 C 418.804688 535.71875 422.3125 550.917969 428.34375 565.726562 C 430.21875 570.320312 436.058594 567.203125 436.125 563.148438 C 436.375 546.667969 435.117188 531.75 430.566406 515.847656 "/><path style=" stroke:none;fill-rule:nonzero;fill:#54b6d9;fill-opacity:1;" d="M 498.679688 593.050781 C 493.199219 578.507812 487.210938 564.507812 480.347656 550.5625 C 474.089844 537.847656 467.59375 524.863281 460.277344 512.730469 C 456.511719 506.480469 452.238281 500.589844 447.777344 494.820312 C 452.476562 510.46875 455.039062 526.910156 459.199219 542.65625 C 460.664062 547.621094 462.117188 552.574219 463.707031 557.457031 C 468.289062 571.480469 473.492188 585.367188 478.441406 599.273438 C 483.066406 612.285156 486.945312 625.386719 496.199219 635.96875 C 498.570312 638.6875 503.394531 637.128906 503.851562 633.417969 C 505.679688 618.609375 503.917969 606.964844 498.679688 593.050781 "/><path style=" stroke:none;fill-rule:nonzero;fill:#e2be67;fill-opacity:1;" d="M 400.070312 722.28125 C 403.550781 727.121094 408.371094 730.660156 413.410156 724.585938 C 414.996094 722.671875 416.285156 720.574219 417.414062 718.378906 C 420.332031 703.585938 419.253906 687.226562 418.738281 672.972656 C 417.761719 645.875 416.910156 618.691406 412.582031 591.882812 C 408.390625 565.875 398.625 542.390625 390.347656 517.5625 C 394.035156 528.625 391.308594 545.863281 391.308594 557.515625 C 391.308594 571.46875 391.050781 585.425781 390.96875 599.382812 C 390.8125 625.46875 391.824219 651.542969 394.351562 677.503906 C 395.386719 688.164062 396.089844 698.820312 396.851562 709.496094 C 397.191406 714.183594 398.550781 718.328125 400.070312 722.28125 "/><path style=" stroke:none;fill-rule:nonzero;fill:#54b6d9;fill-opacity:1;" d="M 528.710938 568.503906 C 524.578125 549.46875 517.746094 532.3125 506.566406 516.320312 C 496.027344 501.246094 485.253906 486.367188 474.214844 471.652344 C 462.5625 456.121094 449.378906 442.074219 435.207031 428.839844 C 421.699219 416.234375 405.769531 403.859375 388.257812 397.445312 C 387.996094 397.347656 387.65625 397.792969 387.917969 397.976562 C 403.078125 408.03125 414.183594 424.445312 425.335938 438.566406 C 437.578125 454.066406 448.476562 470.613281 460.191406 486.492188 C 469.988281 499.753906 479.410156 513.246094 488.851562 526.746094 C 499.671875 542.199219 508.449219 558.832031 519.628906 574.121094 C 523.210938 579.011719 529.746094 573.292969 528.710938 568.503906 "/><path style=" stroke:none;fill-rule:nonzero;fill:#e2be67;fill-opacity:1;" d="M 601.390625 605.796875 C 596.660156 587.457031 591.074219 570.292969 581.460938 553.910156 C 567.570312 530.234375 550.855469 508.039062 531.660156 488.414062 C 512.824219 469.15625 493.058594 457.5625 470.128906 444.492188 C 469.699219 444.246094 469.324219 444.972656 469.617188 445.289062 C 474.769531 450.832031 480.992188 455.242188 486 460.984375 C 514.582031 493.71875 541.125 530.648438 563.90625 567.675781 C 573.40625 583.105469 582.671875 597.433594 595.292969 610.621094 C 598.019531 613.480469 602.121094 608.628906 601.390625 605.796875 "/><path style=" stroke:none;fill-rule:nonzero;fill:#54b6d9;fill-opacity:1;" d="M 685.988281 378.453125 C 667.921875 362.265625 646.140625 354.644531 622.65625 349.546875 C 572.816406 338.730469 527.808594 335.722656 477.347656 344.722656 C 454.332031 348.832031 430.476562 355.378906 409.542969 365.996094 C 409.226562 366.164062 409.300781 366.675781 409.699219 366.535156 C 454.144531 351.023438 502.914062 353.855469 548.660156 360.742188 C 570.660156 364.058594 592.40625 368.234375 614.101562 373.183594 C 636.660156 378.320312 657.828125 386.210938 680.980469 388.570312 C 685.921875 389.078125 689.90625 381.964844 685.988281 378.453125 "/><path style=" stroke:none;fill-rule:nonzero;fill:#54b6d9;fill-opacity:1;" d="M 712.976562 456.917969 C 711.867188 442.878906 698.929688 436.238281 687.882812 429.917969 C 673.914062 421.917969 658.960938 415.421875 643.894531 409.769531 C 629.800781 404.464844 614.933594 399.933594 600.296875 396.335938 C 585.480469 392.691406 570.4375 388.753906 555.4375 385.96875 C 555.214844 385.925781 555.039062 386.324219 555.28125 386.398438 C 582.652344 395.65625 609.503906 407.574219 634.980469 421.230469 C 646.804688 427.578125 658.953125 433.804688 669.960938 441.519531 C 673.8125 444.21875 714.554688 476.972656 712.976562 456.917969 "/><path style=" stroke:none;fill-rule:nonzero;fill:#fc8375;fill-opacity:1;" d="M 625.554688 451.867188 C 598.300781 424.105469 561.355469 405.625 524.964844 392.9375 C 506.933594 386.65625 488.566406 382.984375 469.898438 379.183594 C 460.359375 377.234375 451.011719 376.3125 441.289062 376.058594 C 435.363281 375.898438 428.179688 375.625 422.636719 377.988281 C 422.285156 378.136719 422.277344 378.765625 422.734375 378.691406 C 430.457031 377.449219 439.398438 381.203125 446.675781 383.449219 C 455.171875 386.078125 463.464844 388.671875 471.71875 392.050781 C 488.46875 398.921875 505.65625 404.589844 522.207031 411.992188 C 555.578125 426.90625 588.453125 443.019531 622.148438 457.191406 C 625.101562 458.433594 627.660156 454.023438 625.554688 451.867188 "/><path style=" stroke:none;fill-rule:nonzero;fill:#e2be67;fill-opacity:1;" d="M 624.355469 513.839844 C 616.921875 495.527344 599.195312 483.832031 583.871094 472.296875 C 569.105469 461.167969 553.5 450.75 537.332031 441.742188 C 504.378906 423.394531 466.921875 404.316406 429.074219 399.070312 C 428.859375 399.046875 428.683594 399.417969 428.917969 399.511719 C 445.582031 406.082031 460.605469 417.097656 476.34375 425.550781 C 493.058594 434.523438 509.152344 444.359375 525.613281 453.742188 C 541.308594 462.691406 556.433594 473.027344 570.785156 484 C 578.617188 489.992188 586.648438 495.726562 594.074219 502.222656 C 601.996094 509.160156 608.441406 515.847656 618.414062 519.742188 C 621.503906 520.953125 625.648438 517.023438 624.355469 513.839844 "/><path style=" stroke:none;fill-rule:nonzero;fill:#fc8375;fill-opacity:1;" d="M 706.648438 579.425781 C 707.382812 572.414062 699.320312 557.25 697.871094 554.292969 C 689.683594 537.632812 679.082031 522.492188 666.613281 508.753906 C 649.539062 489.957031 626.054688 471.246094 600.578125 465.964844 C 600.207031 465.882812 599.816406 466.554688 600.171875 466.785156 C 614.203125 476.050781 623.394531 491.007812 633.992188 503.707031 C 648.355469 520.886719 663.519531 537.277344 676.847656 555.300781 C 681.667969 561.832031 694.273438 584.058594 703.613281 582.933594 C 705.542969 582.707031 706.441406 581.382812 706.648438 579.425781 "/><path style=" stroke:none;fill-rule:nonzero;fill:#54b6d9;fill-opacity:1;" d="M 633.554688 580.164062 C 625.449219 568.976562 616.589844 558.359375 607.152344 548.28125 C 597.785156 538.289062 587.292969 530.382812 576.703125 521.820312 C 576.289062 521.480469 575.566406 522.1875 575.914062 522.59375 C 584.171875 532.199219 592.464844 541.261719 599.566406 551.804688 C 607.140625 563.042969 614.019531 574.875 620.425781 586.820312 C 632.949219 610.113281 644.128906 634.121094 658.265625 656.414062 C 661.308594 661.214844 668.566406 656.390625 668.1875 651.742188 C 666.046875 625.296875 648.710938 601.082031 633.554688 580.164062 "/><path style=" stroke:none;fill-rule:nonzero;fill:#54b6d9;fill-opacity:1;" d="M 358.847656 651.078125 C 357.921875 644.628906 356.550781 638.539062 354.910156 632.242188 C 353.585938 627.152344 353.34375 621.855469 351.8125 616.859375 C 351.355469 615.367188 349.417969 616.46875 349.410156 617.664062 C 349.359375 623.101562 347.476562 628.609375 346.449219 633.929688 C 345.164062 640.59375 344.867188 647.347656 343.949219 654.054688 C 342.324219 665.9375 340.9375 678.160156 345.953125 689.347656 C 348.125 694.195312 355.589844 690.722656 356.96875 687.144531 C 361.5 675.375 360.613281 663.375 358.847656 651.078125 "/><path style=" stroke:none;fill-rule:nonzero;fill:#fc8375;fill-opacity:1;" d="M 745.695312 361.445312 C 743.816406 342.585938 720.074219 335.457031 704.640625 331.613281 C 694.5625 329.101562 683.875 327.757812 673.523438 326.988281 C 664.035156 326.285156 654.214844 325.109375 644.765625 326.625 C 644.300781 326.699219 643.886719 327.59375 644.5 327.777344 C 661.09375 332.617188 677.300781 341.714844 693.0625 348.808594 C 700.855469 352.304688 708.503906 355.730469 715.835938 360.136719 C 722.65625 364.238281 730.242188 369.105469 738.542969 368.566406 C 742.082031 368.34375 746.101562 365.5 745.695312 361.445312 "/><path style=" stroke:none;fill-rule:nonzero;fill:#54b6d9;fill-opacity:1;" d="M 559.886719 259.921875 C 552.902344 258.585938 546.125 258.808594 539.386719 260.070312 C 528.453125 263.316406 517.972656 267.734375 509.003906 274.449219 C 525.40625 270.128906 542.839844 272.085938 559.09375 267.023438 C 562.359375 266.011719 564.296875 260.765625 559.886719 259.921875 "/></g></svg>